<mxfile host="app.diagrams.net" agent="Mozilla/5.0 (Windows NT 10.0; Win64; x64) AppleWebKit/537.36 (KHTML, like Gecko) Chrome/132.0.0.0 Safari/537.36" version="26.0.11">
  <diagram name="Page-1" id="97916047-d0de-89f5-080d-49f4d83e522f">
    <mxGraphModel dx="1687" dy="856" grid="1" gridSize="10" guides="1" tooltips="1" connect="1" arrows="1" fold="1" page="1" pageScale="1.5" pageWidth="1169" pageHeight="827" background="none" math="0" shadow="0">
      <root>
        <mxCell id="0" />
        <mxCell id="1" parent="0" />
        <mxCell id="8" value="Pianificazione del Progetto" style="rounded=1;fillColor=#10739E;strokeColor=none;shadow=1;gradientColor=none;fontStyle=1;fontColor=#FFFFFF;fontSize=14;" parent="1" vertex="1">
          <mxGeometry x="282" y="615.5" width="200" height="64.5" as="geometry" />
        </mxCell>
        <mxCell id="34" value="" style="edgeStyle=elbowEdgeStyle;elbow=vertical;strokeWidth=4;endArrow=block;endFill=1;fontStyle=1;strokeColor=#23445D;" parent="1" target="8" edge="1">
          <mxGeometry x="22" y="165.5" width="100" height="100" as="geometry">
            <mxPoint x="790" y="490" as="sourcePoint" />
            <mxPoint x="122" y="165.5" as="targetPoint" />
            <Array as="points">
              <mxPoint x="590" y="550" />
            </Array>
          </mxGeometry>
        </mxCell>
        <mxCell id="CtdOX46LtKlbMSyHWcbX-59" value="" style="edgeStyle=elbowEdgeStyle;elbow=vertical;strokeWidth=4;endArrow=block;endFill=1;fontStyle=1;strokeColor=#23445D;exitX=0.5;exitY=1;exitDx=0;exitDy=0;entryX=0.5;entryY=0;entryDx=0;entryDy=0;" parent="1" source="8" target="CtdOX46LtKlbMSyHWcbX-60" edge="1">
          <mxGeometry x="62" y="165.5" width="100" height="100" as="geometry">
            <mxPoint x="382" y="706" as="sourcePoint" />
            <mxPoint x="382" y="736" as="targetPoint" />
          </mxGeometry>
        </mxCell>
        <mxCell id="CtdOX46LtKlbMSyHWcbX-60" value="Creazione dellaÂ &#xa;Documentazione" style="rounded=1;fillColor=#10739E;strokeColor=none;shadow=1;gradientColor=none;fontStyle=1;fontColor=#FFFFFF;fontSize=14;" parent="1" vertex="1">
          <mxGeometry x="180" y="731" width="200" height="64.5" as="geometry" />
        </mxCell>
        <mxCell id="CtdOX46LtKlbMSyHWcbX-61" value="" style="edgeStyle=elbowEdgeStyle;elbow=vertical;strokeWidth=4;endArrow=block;endFill=1;fontStyle=1;strokeColor=#23445D;exitX=0.5;exitY=1;exitDx=0;exitDy=0;entryX=0.5;entryY=0;entryDx=0;entryDy=0;" parent="1" source="8" target="CtdOX46LtKlbMSyHWcbX-62" edge="1">
          <mxGeometry x="62" y="165.5" width="100" height="100" as="geometry">
            <mxPoint x="622" y="680" as="sourcePoint" />
            <mxPoint x="622" y="736" as="targetPoint" />
            <Array as="points" />
          </mxGeometry>
        </mxCell>
        <mxCell id="CtdOX46LtKlbMSyHWcbX-62" value="Definizioni Milestone" style="rounded=1;fillColor=#10739E;strokeColor=none;shadow=1;gradientColor=none;fontStyle=1;fontColor=#FFFFFF;fontSize=14;" parent="1" vertex="1">
          <mxGeometry x="390" y="731" width="200" height="64.5" as="geometry" />
        </mxCell>
        <mxCell id="CtdOX46LtKlbMSyHWcbX-63" value="" style="edgeStyle=elbowEdgeStyle;elbow=vertical;strokeWidth=4;endArrow=block;endFill=1;fontStyle=1;strokeColor=#23445D;exitX=0.5;exitY=1;exitDx=0;exitDy=0;entryX=0.5;entryY=0;entryDx=0;entryDy=0;" parent="1" source="CtdOX46LtKlbMSyHWcbX-60" target="CtdOX46LtKlbMSyHWcbX-64" edge="1">
          <mxGeometry x="72" y="165.5" width="100" height="100" as="geometry">
            <mxPoint x="762" y="686" as="sourcePoint" />
            <mxPoint x="762" y="716" as="targetPoint" />
          </mxGeometry>
        </mxCell>
        <mxCell id="CtdOX46LtKlbMSyHWcbX-64" value="WBS" style="rounded=1;fillColor=#10739E;strokeColor=none;shadow=1;gradientColor=none;fontStyle=1;fontColor=#FFFFFF;fontSize=14;" parent="1" vertex="1">
          <mxGeometry x="180" y="821" width="200" height="64.5" as="geometry" />
        </mxCell>
        <mxCell id="CtdOX46LtKlbMSyHWcbX-65" value="" style="edgeStyle=elbowEdgeStyle;elbow=vertical;strokeWidth=4;endArrow=block;endFill=1;fontStyle=1;strokeColor=#23445D;exitX=0.5;exitY=1;exitDx=0;exitDy=0;entryX=0.5;entryY=0;entryDx=0;entryDy=0;" parent="1" source="CtdOX46LtKlbMSyHWcbX-64" target="CtdOX46LtKlbMSyHWcbX-66" edge="1">
          <mxGeometry x="72" y="165.5" width="100" height="100" as="geometry">
            <mxPoint x="280" y="900" as="sourcePoint" />
            <mxPoint x="762" y="820" as="targetPoint" />
          </mxGeometry>
        </mxCell>
        <mxCell id="CtdOX46LtKlbMSyHWcbX-66" value="Task Manager" style="rounded=1;fillColor=#10739E;strokeColor=none;shadow=1;gradientColor=none;fontStyle=1;fontColor=#FFFFFF;fontSize=14;" parent="1" vertex="1">
          <mxGeometry x="180" y="911" width="200" height="64.5" as="geometry" />
        </mxCell>
        <mxCell id="CtdOX46LtKlbMSyHWcbX-67" value="Gantt" style="rounded=1;fillColor=#10739E;strokeColor=none;shadow=1;gradientColor=none;fontStyle=1;fontColor=#FFFFFF;fontSize=14;" parent="1" vertex="1">
          <mxGeometry x="180" y="1000" width="200" height="64.5" as="geometry" />
        </mxCell>
        <mxCell id="CtdOX46LtKlbMSyHWcbX-68" value="" style="edgeStyle=elbowEdgeStyle;elbow=vertical;strokeWidth=4;endArrow=block;endFill=1;fontStyle=1;strokeColor=#23445D;exitX=0.5;exitY=1;exitDx=0;exitDy=0;entryX=0.5;entryY=0;entryDx=0;entryDy=0;" parent="1" source="CtdOX46LtKlbMSyHWcbX-66" target="CtdOX46LtKlbMSyHWcbX-67" edge="1">
          <mxGeometry x="72" y="165.5" width="100" height="100" as="geometry">
            <mxPoint x="290" y="896" as="sourcePoint" />
            <mxPoint x="290" y="921" as="targetPoint" />
          </mxGeometry>
        </mxCell>
        <mxCell id="CtdOX46LtKlbMSyHWcbX-69" value="Repository GitHub" style="rounded=1;fillColor=#10739E;strokeColor=none;shadow=1;gradientColor=none;fontStyle=1;fontColor=#FFFFFF;fontSize=14;" parent="1" vertex="1">
          <mxGeometry x="180" y="1090" width="200" height="64.5" as="geometry" />
        </mxCell>
        <mxCell id="CtdOX46LtKlbMSyHWcbX-70" value="" style="edgeStyle=elbowEdgeStyle;elbow=vertical;strokeWidth=4;endArrow=block;endFill=1;fontStyle=1;strokeColor=#23445D;exitX=0.5;exitY=1;exitDx=0;exitDy=0;entryX=0.5;entryY=0;entryDx=0;entryDy=0;" parent="1" source="CtdOX46LtKlbMSyHWcbX-67" target="CtdOX46LtKlbMSyHWcbX-69" edge="1">
          <mxGeometry x="72" y="165.5" width="100" height="100" as="geometry">
            <mxPoint x="290" y="986" as="sourcePoint" />
            <mxPoint x="290" y="1010" as="targetPoint" />
          </mxGeometry>
        </mxCell>
        <mxCell id="CtdOX46LtKlbMSyHWcbX-71" value="Verbale Riunioni" style="rounded=1;fillColor=#10739E;strokeColor=none;shadow=1;gradientColor=none;fontStyle=1;fontColor=#FFFFFF;fontSize=14;" parent="1" vertex="1">
          <mxGeometry x="180" y="1180" width="200" height="64.5" as="geometry" />
        </mxCell>
        <mxCell id="CtdOX46LtKlbMSyHWcbX-72" value="" style="edgeStyle=elbowEdgeStyle;elbow=vertical;strokeWidth=4;endArrow=block;endFill=1;fontStyle=1;strokeColor=#23445D;exitX=0.5;exitY=1;exitDx=0;exitDy=0;entryX=0.5;entryY=0;entryDx=0;entryDy=0;" parent="1" source="CtdOX46LtKlbMSyHWcbX-69" target="CtdOX46LtKlbMSyHWcbX-71" edge="1">
          <mxGeometry x="72" y="165.5" width="100" height="100" as="geometry">
            <mxPoint x="290" y="1075" as="sourcePoint" />
            <mxPoint x="290" y="1100" as="targetPoint" />
          </mxGeometry>
        </mxCell>
        <mxCell id="CtdOX46LtKlbMSyHWcbX-73" value="" style="edgeStyle=elbowEdgeStyle;elbow=vertical;strokeWidth=4;endArrow=block;endFill=1;fontStyle=1;strokeColor=#23445D;entryX=0.5;entryY=0;entryDx=0;entryDy=0;exitX=0.5;exitY=1;exitDx=0;exitDy=0;" parent="1" source="CtdOX46LtKlbMSyHWcbX-71" target="CtdOX46LtKlbMSyHWcbX-74" edge="1">
          <mxGeometry x="72" y="165.5" width="100" height="100" as="geometry">
            <mxPoint x="280" y="1240" as="sourcePoint" />
            <mxPoint x="290" y="1190" as="targetPoint" />
          </mxGeometry>
        </mxCell>
        <mxCell id="CtdOX46LtKlbMSyHWcbX-74" value="Analisi dei Rischi" style="rounded=1;fillColor=#10739E;strokeColor=none;shadow=1;gradientColor=none;fontStyle=1;fontColor=#FFFFFF;fontSize=14;" parent="1" vertex="1">
          <mxGeometry x="180" y="1270" width="200" height="64.5" as="geometry" />
        </mxCell>
        <mxCell id="CtdOX46LtKlbMSyHWcbX-75" value="Identificazione delle&#xa;precedenze" style="rounded=1;fillColor=#10739E;strokeColor=none;shadow=1;gradientColor=none;fontStyle=1;fontColor=#FFFFFF;fontSize=14;" parent="1" vertex="1">
          <mxGeometry x="390" y="821" width="200" height="64.5" as="geometry" />
        </mxCell>
        <mxCell id="CtdOX46LtKlbMSyHWcbX-76" value="" style="edgeStyle=elbowEdgeStyle;elbow=vertical;strokeWidth=4;endArrow=block;endFill=1;fontStyle=1;strokeColor=#23445D;exitX=0.5;exitY=1;exitDx=0;exitDy=0;entryX=0.5;entryY=0;entryDx=0;entryDy=0;" parent="1" source="CtdOX46LtKlbMSyHWcbX-62" target="CtdOX46LtKlbMSyHWcbX-75" edge="1">
          <mxGeometry x="72" y="165.5" width="100" height="100" as="geometry">
            <mxPoint x="290" y="806" as="sourcePoint" />
            <mxPoint x="290" y="831" as="targetPoint" />
          </mxGeometry>
        </mxCell>
        <mxCell id="CtdOX46LtKlbMSyHWcbX-77" value="Progettazione Database" style="rounded=1;fillColor=#10739E;strokeColor=none;shadow=1;gradientColor=none;fontStyle=1;fontColor=#FFFFFF;fontSize=14;" parent="1" vertex="1">
          <mxGeometry x="690" y="615.5" width="200" height="64.5" as="geometry" />
        </mxCell>
        <mxCell id="CtdOX46LtKlbMSyHWcbX-78" value="" style="edgeStyle=elbowEdgeStyle;elbow=vertical;strokeWidth=4;endArrow=block;endFill=1;fontStyle=1;strokeColor=#23445D;exitX=0.5;exitY=1;exitDx=0;exitDy=0;entryX=0.5;entryY=0;entryDx=0;entryDy=0;" parent="1" target="CtdOX46LtKlbMSyHWcbX-77" edge="1">
          <mxGeometry x="22" y="165.5" width="100" height="100" as="geometry">
            <mxPoint x="790" y="490" as="sourcePoint" />
            <mxPoint x="790" y="600" as="targetPoint" />
            <Array as="points">
              <mxPoint x="790" y="540" />
            </Array>
          </mxGeometry>
        </mxCell>
        <mxCell id="CtdOX46LtKlbMSyHWcbX-79" value="Implemenazione&#xa;WebApplication" style="rounded=1;fillColor=#10739E;strokeColor=none;shadow=1;gradientColor=none;fontStyle=1;fontColor=#FFFFFF;fontSize=14;" parent="1" vertex="1">
          <mxGeometry x="1340" y="615.5" width="200" height="64.5" as="geometry" />
        </mxCell>
        <mxCell id="CtdOX46LtKlbMSyHWcbX-80" value="" style="edgeStyle=elbowEdgeStyle;elbow=vertical;strokeWidth=4;endArrow=block;endFill=1;fontStyle=1;strokeColor=#23445D;exitX=0.5;exitY=1;exitDx=0;exitDy=0;entryX=0.5;entryY=0;entryDx=0;entryDy=0;" parent="1" source="CtdOX46LtKlbMSyHWcbX-98" target="CtdOX46LtKlbMSyHWcbX-79" edge="1">
          <mxGeometry x="22" y="165.5" width="100" height="100" as="geometry">
            <mxPoint x="790" y="490" as="sourcePoint" />
            <mxPoint x="392" y="626" as="targetPoint" />
            <Array as="points">
              <mxPoint x="980" y="550" />
            </Array>
          </mxGeometry>
        </mxCell>
        <mxCell id="CtdOX46LtKlbMSyHWcbX-81" value="Schema ER" style="rounded=1;fillColor=#10739E;strokeColor=none;shadow=1;gradientColor=none;fontStyle=1;fontColor=#FFFFFF;fontSize=14;" parent="1" vertex="1">
          <mxGeometry x="690" y="731" width="200" height="64.5" as="geometry" />
        </mxCell>
        <mxCell id="CtdOX46LtKlbMSyHWcbX-82" value="Modello Logico&#xa;Relazionale" style="rounded=1;fillColor=#10739E;strokeColor=none;shadow=1;gradientColor=none;fontStyle=1;fontColor=#FFFFFF;fontSize=14;" parent="1" vertex="1">
          <mxGeometry x="690" y="821" width="200" height="64.5" as="geometry" />
        </mxCell>
        <mxCell id="CtdOX46LtKlbMSyHWcbX-83" value="" style="edgeStyle=elbowEdgeStyle;elbow=vertical;strokeWidth=4;endArrow=block;endFill=1;fontStyle=1;strokeColor=#23445D;exitX=0.5;exitY=1;exitDx=0;exitDy=0;entryX=0.5;entryY=0;entryDx=0;entryDy=0;" parent="1" source="CtdOX46LtKlbMSyHWcbX-77" target="CtdOX46LtKlbMSyHWcbX-81" edge="1">
          <mxGeometry x="72" y="165.5" width="100" height="100" as="geometry">
            <mxPoint x="500" y="805" as="sourcePoint" />
            <mxPoint x="790" y="730" as="targetPoint" />
          </mxGeometry>
        </mxCell>
        <mxCell id="CtdOX46LtKlbMSyHWcbX-84" value="" style="edgeStyle=elbowEdgeStyle;elbow=vertical;strokeWidth=4;endArrow=block;endFill=1;fontStyle=1;strokeColor=#23445D;exitX=0.5;exitY=1;exitDx=0;exitDy=0;entryX=0.5;entryY=0;entryDx=0;entryDy=0;" parent="1" source="CtdOX46LtKlbMSyHWcbX-81" target="CtdOX46LtKlbMSyHWcbX-82" edge="1">
          <mxGeometry x="72" y="165.5" width="100" height="100" as="geometry">
            <mxPoint x="500" y="805" as="sourcePoint" />
            <mxPoint x="500" y="831" as="targetPoint" />
          </mxGeometry>
        </mxCell>
        <mxCell id="CtdOX46LtKlbMSyHWcbX-86" value="MySQL" style="rounded=1;fillColor=#10739E;strokeColor=none;shadow=1;gradientColor=none;fontStyle=1;fontColor=#FFFFFF;fontSize=14;" parent="1" vertex="1">
          <mxGeometry x="990" y="731" width="200" height="64.5" as="geometry" />
        </mxCell>
        <mxCell id="CtdOX46LtKlbMSyHWcbX-87" value="CRUD" style="rounded=1;fillColor=#10739E;strokeColor=none;shadow=1;gradientColor=none;fontStyle=1;fontColor=#FFFFFF;fontSize=14;" parent="1" vertex="1">
          <mxGeometry x="1000" y="1050" width="200" height="64.5" as="geometry" />
        </mxCell>
        <mxCell id="CtdOX46LtKlbMSyHWcbX-88" value="PHP" style="rounded=1;fillColor=#10739E;strokeColor=none;shadow=1;gradientColor=none;fontStyle=1;fontColor=#FFFFFF;fontSize=14;" parent="1" vertex="1">
          <mxGeometry x="1220" y="731" width="200" height="64.5" as="geometry" />
        </mxCell>
        <mxCell id="CtdOX46LtKlbMSyHWcbX-89" value="MockUp / UX Design" style="rounded=1;fillColor=#10739E;strokeColor=none;shadow=1;gradientColor=none;fontStyle=1;fontColor=#FFFFFF;fontSize=14;" parent="1" vertex="1">
          <mxGeometry x="1460" y="731" width="200" height="64.5" as="geometry" />
        </mxCell>
        <mxCell id="CtdOX46LtKlbMSyHWcbX-90" value="Testing/Debugging" style="rounded=1;fillColor=#10739E;strokeColor=none;shadow=1;gradientColor=none;fontStyle=1;fontColor=#FFFFFF;fontSize=14;" parent="1" vertex="1">
          <mxGeometry x="1670" y="731" width="200" height="64.5" as="geometry" />
        </mxCell>
        <mxCell id="CtdOX46LtKlbMSyHWcbX-91" value="" style="edgeStyle=elbowEdgeStyle;elbow=vertical;strokeWidth=4;endArrow=block;endFill=1;fontStyle=1;strokeColor=#23445D;exitX=0.5;exitY=1;exitDx=0;exitDy=0;entryX=0.5;entryY=0;entryDx=0;entryDy=0;" parent="1" source="CtdOX46LtKlbMSyHWcbX-79" target="CtdOX46LtKlbMSyHWcbX-86" edge="1">
          <mxGeometry x="22" y="165.5" width="100" height="100" as="geometry">
            <mxPoint x="1110" y="560" as="sourcePoint" />
            <mxPoint x="1110" y="686" as="targetPoint" />
            <Array as="points" />
          </mxGeometry>
        </mxCell>
        <mxCell id="CtdOX46LtKlbMSyHWcbX-92" value="" style="edgeStyle=elbowEdgeStyle;elbow=vertical;strokeWidth=4;endArrow=block;endFill=1;fontStyle=1;strokeColor=#23445D;exitX=0.5;exitY=1;exitDx=0;exitDy=0;entryX=0.5;entryY=0;entryDx=0;entryDy=0;" parent="1" source="CtdOX46LtKlbMSyHWcbX-79" target="CtdOX46LtKlbMSyHWcbX-88" edge="1">
          <mxGeometry x="22" y="165.5" width="100" height="100" as="geometry">
            <mxPoint x="1450" y="690" as="sourcePoint" />
            <mxPoint x="1100" y="741" as="targetPoint" />
            <Array as="points" />
          </mxGeometry>
        </mxCell>
        <mxCell id="CtdOX46LtKlbMSyHWcbX-93" value="" style="edgeStyle=elbowEdgeStyle;elbow=vertical;strokeWidth=4;endArrow=block;endFill=1;fontStyle=1;strokeColor=#23445D;exitX=0.5;exitY=1;exitDx=0;exitDy=0;entryX=0.5;entryY=0;entryDx=0;entryDy=0;" parent="1" source="CtdOX46LtKlbMSyHWcbX-79" target="CtdOX46LtKlbMSyHWcbX-89" edge="1">
          <mxGeometry x="22" y="165.5" width="100" height="100" as="geometry">
            <mxPoint x="1450" y="690" as="sourcePoint" />
            <mxPoint x="1330" y="741" as="targetPoint" />
            <Array as="points" />
          </mxGeometry>
        </mxCell>
        <mxCell id="CtdOX46LtKlbMSyHWcbX-94" value="" style="edgeStyle=elbowEdgeStyle;elbow=vertical;strokeWidth=4;endArrow=block;endFill=1;fontStyle=1;strokeColor=#23445D;exitX=0.5;exitY=1;exitDx=0;exitDy=0;entryX=0.5;entryY=0;entryDx=0;entryDy=0;" parent="1" source="CtdOX46LtKlbMSyHWcbX-79" target="CtdOX46LtKlbMSyHWcbX-90" edge="1">
          <mxGeometry x="22" y="165.5" width="100" height="100" as="geometry">
            <mxPoint x="1450" y="690" as="sourcePoint" />
            <mxPoint x="1560" y="741" as="targetPoint" />
            <Array as="points" />
          </mxGeometry>
        </mxCell>
        <mxCell id="CtdOX46LtKlbMSyHWcbX-98" value="Mercurio UDA" style="rounded=1;fillColor=#10739E;strokeColor=none;shadow=1;gradientColor=none;fontStyle=1;fontColor=#FFFFFF;fontSize=14;" parent="1" vertex="1">
          <mxGeometry x="690" y="430" width="200" height="64.5" as="geometry" />
        </mxCell>
        <mxCell id="0NwATgfMNuar-su6FLqs-34" value="SUBTASK DA COMPLETARE" style="rounded=0;whiteSpace=wrap;html=1;" parent="1" vertex="1">
          <mxGeometry x="1300" y="1022.75" width="320" height="119" as="geometry" />
        </mxCell>
        <mxCell id="0NwATgfMNuar-su6FLqs-35" value="Implementazione Basi di Dati" style="rounded=1;fillColor=#10739E;strokeColor=none;shadow=1;gradientColor=none;fontStyle=1;fontColor=#FFFFFF;fontSize=14;" parent="1" vertex="1">
          <mxGeometry x="975" y="821" width="230" height="64.5" as="geometry" />
        </mxCell>
        <mxCell id="Vocrr_8_IjVMQppuAlkT-34" value="HTML / CSS" style="rounded=1;fillColor=#10739E;strokeColor=none;shadow=1;gradientColor=none;fontStyle=1;fontColor=#FFFFFF;fontSize=14;" vertex="1" parent="1">
          <mxGeometry x="1460" y="821" width="200" height="64.5" as="geometry" />
        </mxCell>
        <mxCell id="Vocrr_8_IjVMQppuAlkT-35" value="" style="edgeStyle=elbowEdgeStyle;elbow=vertical;strokeWidth=4;endArrow=block;endFill=1;fontStyle=1;strokeColor=#23445D;exitX=0.5;exitY=1;exitDx=0;exitDy=0;entryX=0.5;entryY=0;entryDx=0;entryDy=0;" edge="1" parent="1" source="CtdOX46LtKlbMSyHWcbX-89" target="Vocrr_8_IjVMQppuAlkT-34">
          <mxGeometry x="72" y="165.5" width="100" height="100" as="geometry">
            <mxPoint x="800" y="806" as="sourcePoint" />
            <mxPoint x="1660" y="810" as="targetPoint" />
          </mxGeometry>
        </mxCell>
      </root>
    </mxGraphModel>
  </diagram>
</mxfile>
